<?xml version="1.0" standalone="no"?><!DOCTYPE svg PUBLIC "-//W3C//DTD SVG 1.1//EN" "http://www.w3.org/Graphics/SVG/1.1/DTD/svg11.dtd"><svg t="1729005770014" class="icon" viewBox="0 0 1024 1024" version="1.1" xmlns="http://www.w3.org/2000/svg" p-id="1547" xmlns:xlink="http://www.w3.org/1999/xlink" width="200" height="200"><path d="M886.669386 94.110873A96.806579 96.806579 0 0 1 955.46109 187.198059V603.292324c0 49.2393-14.775202 97.284299-42.346481 137.788145-27.093558 39.787265-64.628714 79.403916-112.605467 118.849952-59.237301 48.727457-125.367421 93.906135-198.424484 135.604282l-18.426349 10.373352a141.609906 141.609906 0 0 1-139.699025-1.296669c-99.399917-57.462911-173.105314-105.84914-220.9797-145.158685-42.994815-35.283047-82.30436-81.656025-117.996881-139.15306A245.002199 245.002199 0 0 1 68.266496 591.144582V187.163936c0-43.063061 27.980753-80.973568 68.757581-93.087186C271.707041 54.152993 438.499625 0 511.693178 0c60.295109 0 240.156752 54.11887 374.976208 94.110873zM249.731913 470.52024c0 146.864828 117.382669 265.919518 262.13188 265.919518 144.783333 0 262.13188-119.05469 262.131879-265.919518S656.613003 204.532477 511.863793 204.532477c-144.783333 0.034123-262.13188 119.088813-262.13188 265.987763z m419.574797-91.619903a186.14025 186.14025 0 0 1-29.106807 221.832772 179.520414 179.520414 0 0 1-218.659344 29.482158l247.732028-251.31493zM614.539506 318.707596L362.200889 574.629114a186.37911 186.37911 0 0 1-10.919318-189.962012A181.158311 181.158311 0 0 1 511.863793 286.427362c38.115245 0 73.466537 11.908881 102.709835 32.280234z" fill="#1296db" p-id="1548"></path></svg>